<mxfile host="app.diagrams.net" modified="2022-03-24T09:10:42.754Z" agent="5.0 (Macintosh; Intel Mac OS X 10_15_7) AppleWebKit/605.1.15 (KHTML, like Gecko) Version/15.3 Safari/605.1.15" etag="m2AOonTjQPjPlWifUGfK" version="17.1.5" type="github">
  <diagram id="C5RBs43oDa-KdzZeNtuy" name="Page-1">
    <mxGraphModel dx="582" dy="394" grid="1" gridSize="10" guides="1" tooltips="1" connect="1" arrows="1" fold="1" page="1" pageScale="1" pageWidth="827" pageHeight="1169" math="0" shadow="0">
      <root>
        <mxCell id="WIyWlLk6GJQsqaUBKTNV-0" />
        <mxCell id="WIyWlLk6GJQsqaUBKTNV-1" parent="WIyWlLk6GJQsqaUBKTNV-0" />
        <mxCell id="PpgQZHZEXtgsGQ5d_JVp-1" value="" style="rounded=0;whiteSpace=wrap;html=1;dashed=1;" parent="WIyWlLk6GJQsqaUBKTNV-1" vertex="1">
          <mxGeometry x="60" y="430" width="580" height="470" as="geometry" />
        </mxCell>
        <mxCell id="PpgQZHZEXtgsGQ5d_JVp-0" value="&lt;h1&gt;现有问题：&lt;/h1&gt;&lt;p&gt;1）实现方案问题&lt;/p&gt;&lt;p&gt;&lt;span style=&quot;white-space: pre&quot;&gt; a）依赖redis 来去重，可用性，容错性问题&lt;/span&gt;&lt;br&gt;&lt;/p&gt;&lt;p&gt;&lt;span style=&quot;white-space: pre&quot;&gt; b）不同时间纬度的统计完全依赖与HBase的计算，频繁的更新HBase，性能低，存在数据丢失case&lt;/span&gt;&lt;br&gt;&lt;/p&gt;&lt;p&gt;&lt;span style=&quot;white-space: pre&quot;&gt;&lt;span style=&quot;white-space: pre&quot;&gt; c）批量提交HBase，现在通过系统时间范围来是否选择批量提交，这块不灵活，也存在丢数问题&lt;/span&gt;&lt;/span&gt;&lt;/p&gt;&lt;p&gt;&lt;span style=&quot;white-space: pre&quot;&gt;2）代码工程问题&lt;/span&gt;&lt;/p&gt;&lt;p&gt;&lt;span style=&quot;white-space: pre&quot;&gt;&lt;span style=&quot;white-space: pre&quot;&gt; a）模块划分不好&lt;/span&gt;&lt;br&gt;&lt;/span&gt;&lt;/p&gt;&lt;p&gt;&lt;span style=&quot;white-space: pre&quot;&gt;&lt;span style=&quot;white-space: pre&quot;&gt;&lt;span style=&quot;white-space: pre&quot;&gt; b）代码复用性不好，现在每个BU一套代码，主逻辑基本都一样。抽取解析器，去重逻辑，计算逻辑&lt;/span&gt;&lt;br&gt;&lt;/span&gt;&lt;/span&gt;&lt;/p&gt;&lt;p&gt;&lt;span style=&quot;white-space: pre&quot;&gt;&lt;span style=&quot;white-space: pre&quot;&gt;&lt;span style=&quot;white-space: pre&quot;&gt;&lt;span style=&quot;white-space: pre&quot;&gt; c）异常处理不合理，日志输出不规范，排错困难&lt;/span&gt;&lt;/span&gt;&lt;/span&gt;&lt;/span&gt;&lt;/p&gt;&lt;p&gt;&lt;span style=&quot;white-space: pre&quot;&gt;3）性能问题&lt;/span&gt;&lt;/p&gt;&lt;p&gt;&lt;span style=&quot;white-space: pre&quot;&gt;&lt;span style=&quot;white-space: pre&quot;&gt; a）纬表数据没有做缓存处理，或者通过广播表的方式处理，频繁的查询纬表数据&lt;/span&gt;&lt;br&gt;&lt;/span&gt;&lt;/p&gt;&lt;p&gt;&lt;span style=&quot;white-space: pre&quot;&gt;&lt;span style=&quot;white-space: pre&quot;&gt;&lt;span style=&quot;white-space: pre&quot;&gt; b）依赖HBase做统计，性能低&lt;/span&gt;&lt;br&gt;&lt;/span&gt;&lt;/span&gt;&lt;/p&gt;" style="text;html=1;strokeColor=none;fillColor=none;spacing=5;spacingTop=-20;whiteSpace=wrap;overflow=hidden;rounded=0;" parent="WIyWlLk6GJQsqaUBKTNV-1" vertex="1">
          <mxGeometry x="60" y="30" width="600" height="360" as="geometry" />
        </mxCell>
        <mxCell id="RHIrmTfkz3pfI6pTi9OC-3" value="" style="edgeStyle=orthogonalEdgeStyle;rounded=0;orthogonalLoop=1;jettySize=auto;html=1;" parent="WIyWlLk6GJQsqaUBKTNV-1" source="RHIrmTfkz3pfI6pTi9OC-0" target="RHIrmTfkz3pfI6pTi9OC-2" edge="1">
          <mxGeometry relative="1" as="geometry" />
        </mxCell>
        <mxCell id="dQFGTe_rli6qkeEuCF2u-1" value="" style="rounded=0;whiteSpace=wrap;html=1;fillColor=#dae8fc;strokeColor=#6c8ebf;" vertex="1" parent="WIyWlLk6GJQsqaUBKTNV-1">
          <mxGeometry x="265" y="460" width="190" height="420" as="geometry" />
        </mxCell>
        <mxCell id="RHIrmTfkz3pfI6pTi9OC-2" value="数据入库" style="whiteSpace=wrap;html=1;fillColor=#ffe6cc;strokeColor=#d79b00;rounded=1;" parent="WIyWlLk6GJQsqaUBKTNV-1" vertex="1">
          <mxGeometry x="499" y="810" width="120" height="60" as="geometry" />
        </mxCell>
        <mxCell id="dQFGTe_rli6qkeEuCF2u-0" value="Main Logic" style="text;html=1;strokeColor=none;fillColor=none;align=center;verticalAlign=middle;whiteSpace=wrap;rounded=0;" vertex="1" parent="WIyWlLk6GJQsqaUBKTNV-1">
          <mxGeometry x="90" y="490" width="60" height="30" as="geometry" />
        </mxCell>
        <mxCell id="PpgQZHZEXtgsGQ5d_JVp-5" value="" style="edgeStyle=orthogonalEdgeStyle;rounded=0;orthogonalLoop=1;jettySize=auto;html=1;" parent="WIyWlLk6GJQsqaUBKTNV-1" source="PpgQZHZEXtgsGQ5d_JVp-3" target="PpgQZHZEXtgsGQ5d_JVp-4" edge="1">
          <mxGeometry relative="1" as="geometry" />
        </mxCell>
        <mxCell id="PpgQZHZEXtgsGQ5d_JVp-3" value="消息解析器" style="rounded=1;whiteSpace=wrap;html=1;fillColor=#ffe6cc;strokeColor=#d79b00;" parent="WIyWlLk6GJQsqaUBKTNV-1" vertex="1">
          <mxGeometry x="300" y="510" width="120" height="60" as="geometry" />
        </mxCell>
        <mxCell id="PpgQZHZEXtgsGQ5d_JVp-7" value="" style="edgeStyle=orthogonalEdgeStyle;rounded=0;orthogonalLoop=1;jettySize=auto;html=1;" parent="WIyWlLk6GJQsqaUBKTNV-1" source="PpgQZHZEXtgsGQ5d_JVp-4" target="PpgQZHZEXtgsGQ5d_JVp-6" edge="1">
          <mxGeometry relative="1" as="geometry" />
        </mxCell>
        <mxCell id="PpgQZHZEXtgsGQ5d_JVp-4" value="数据过滤&lt;br&gt;" style="rounded=1;whiteSpace=wrap;html=1;fillColor=#ffe6cc;strokeColor=#d79b00;" parent="WIyWlLk6GJQsqaUBKTNV-1" vertex="1">
          <mxGeometry x="300" y="610" width="120" height="60" as="geometry" />
        </mxCell>
        <mxCell id="RHIrmTfkz3pfI6pTi9OC-1" value="" style="edgeStyle=orthogonalEdgeStyle;rounded=0;orthogonalLoop=1;jettySize=auto;html=1;" parent="WIyWlLk6GJQsqaUBKTNV-1" source="PpgQZHZEXtgsGQ5d_JVp-6" target="RHIrmTfkz3pfI6pTi9OC-0" edge="1">
          <mxGeometry relative="1" as="geometry" />
        </mxCell>
        <mxCell id="PpgQZHZEXtgsGQ5d_JVp-6" value="&lt;span&gt;业务去重&lt;/span&gt;" style="whiteSpace=wrap;html=1;fillColor=#ffe6cc;strokeColor=#d79b00;rounded=1;" parent="WIyWlLk6GJQsqaUBKTNV-1" vertex="1">
          <mxGeometry x="300" y="710" width="120" height="60" as="geometry" />
        </mxCell>
        <mxCell id="RHIrmTfkz3pfI6pTi9OC-0" value="数据计算" style="whiteSpace=wrap;html=1;fillColor=#ffe6cc;strokeColor=#d79b00;rounded=1;" parent="WIyWlLk6GJQsqaUBKTNV-1" vertex="1">
          <mxGeometry x="300" y="810" width="120" height="60" as="geometry" />
        </mxCell>
        <mxCell id="PpgQZHZEXtgsGQ5d_JVp-8" value="" style="edgeStyle=orthogonalEdgeStyle;rounded=0;orthogonalLoop=1;jettySize=auto;html=1;" parent="WIyWlLk6GJQsqaUBKTNV-1" source="PpgQZHZEXtgsGQ5d_JVp-2" edge="1">
          <mxGeometry relative="1" as="geometry">
            <mxPoint x="300" y="640" as="targetPoint" />
          </mxGeometry>
        </mxCell>
        <mxCell id="PpgQZHZEXtgsGQ5d_JVp-2" value="纬表Flink CDC 广播" style="rounded=1;whiteSpace=wrap;html=1;fillColor=#ffe6cc;strokeColor=#d79b00;" parent="WIyWlLk6GJQsqaUBKTNV-1" vertex="1">
          <mxGeometry x="100" y="610" width="120" height="60" as="geometry" />
        </mxCell>
        <mxCell id="dQFGTe_rli6qkeEuCF2u-2" value="Msg5/estore.." style="text;html=1;strokeColor=none;fillColor=none;align=center;verticalAlign=middle;whiteSpace=wrap;rounded=0;" vertex="1" parent="WIyWlLk6GJQsqaUBKTNV-1">
          <mxGeometry x="321" y="470" width="60" height="30" as="geometry" />
        </mxCell>
        <mxCell id="dQFGTe_rli6qkeEuCF2u-3" value="" style="rounded=0;whiteSpace=wrap;html=1;dashed=1;" vertex="1" parent="WIyWlLk6GJQsqaUBKTNV-1">
          <mxGeometry x="60" y="980" width="580" height="520" as="geometry" />
        </mxCell>
        <mxCell id="dQFGTe_rli6qkeEuCF2u-6" value="" style="edgeStyle=orthogonalEdgeStyle;rounded=0;orthogonalLoop=1;jettySize=auto;html=1;" edge="1" parent="WIyWlLk6GJQsqaUBKTNV-1" source="dQFGTe_rli6qkeEuCF2u-4" target="dQFGTe_rli6qkeEuCF2u-5">
          <mxGeometry relative="1" as="geometry" />
        </mxCell>
        <mxCell id="dQFGTe_rli6qkeEuCF2u-4" value="parse" style="rounded=1;whiteSpace=wrap;html=1;fillColor=#ffe6cc;strokeColor=#d79b00;" vertex="1" parent="WIyWlLk6GJQsqaUBKTNV-1">
          <mxGeometry x="120" y="1020" width="120" height="60" as="geometry" />
        </mxCell>
        <mxCell id="dQFGTe_rli6qkeEuCF2u-8" value="" style="edgeStyle=orthogonalEdgeStyle;rounded=0;orthogonalLoop=1;jettySize=auto;html=1;" edge="1" parent="WIyWlLk6GJQsqaUBKTNV-1" source="dQFGTe_rli6qkeEuCF2u-5" target="dQFGTe_rli6qkeEuCF2u-7">
          <mxGeometry relative="1" as="geometry" />
        </mxCell>
        <mxCell id="dQFGTe_rli6qkeEuCF2u-5" value="数据过滤" style="whiteSpace=wrap;html=1;fillColor=#ffe6cc;strokeColor=#d79b00;rounded=1;" vertex="1" parent="WIyWlLk6GJQsqaUBKTNV-1">
          <mxGeometry x="120" y="1120" width="120" height="60" as="geometry" />
        </mxCell>
        <mxCell id="dQFGTe_rli6qkeEuCF2u-12" value="" style="edgeStyle=orthogonalEdgeStyle;rounded=0;orthogonalLoop=1;jettySize=auto;html=1;" edge="1" parent="WIyWlLk6GJQsqaUBKTNV-1" source="dQFGTe_rli6qkeEuCF2u-7" target="dQFGTe_rli6qkeEuCF2u-11">
          <mxGeometry relative="1" as="geometry" />
        </mxCell>
        <mxCell id="dQFGTe_rli6qkeEuCF2u-7" value="keyBy duplication key" style="whiteSpace=wrap;html=1;fillColor=#ffe6cc;strokeColor=#d79b00;rounded=1;" vertex="1" parent="WIyWlLk6GJQsqaUBKTNV-1">
          <mxGeometry x="120" y="1210" width="120" height="60" as="geometry" />
        </mxCell>
        <mxCell id="dQFGTe_rli6qkeEuCF2u-14" value="" style="edgeStyle=orthogonalEdgeStyle;rounded=0;orthogonalLoop=1;jettySize=auto;html=1;" edge="1" parent="WIyWlLk6GJQsqaUBKTNV-1" source="dQFGTe_rli6qkeEuCF2u-11" target="dQFGTe_rli6qkeEuCF2u-13">
          <mxGeometry relative="1" as="geometry" />
        </mxCell>
        <mxCell id="dQFGTe_rli6qkeEuCF2u-15" value="Y" style="edgeLabel;html=1;align=center;verticalAlign=middle;resizable=0;points=[];" vertex="1" connectable="0" parent="dQFGTe_rli6qkeEuCF2u-14">
          <mxGeometry x="-0.2683" y="1" relative="1" as="geometry">
            <mxPoint as="offset" />
          </mxGeometry>
        </mxCell>
        <mxCell id="dQFGTe_rli6qkeEuCF2u-17" value="" style="edgeStyle=orthogonalEdgeStyle;rounded=0;orthogonalLoop=1;jettySize=auto;html=1;" edge="1" parent="WIyWlLk6GJQsqaUBKTNV-1" source="dQFGTe_rli6qkeEuCF2u-11" target="dQFGTe_rli6qkeEuCF2u-16">
          <mxGeometry relative="1" as="geometry" />
        </mxCell>
        <mxCell id="dQFGTe_rli6qkeEuCF2u-11" value="state&lt;br&gt;duplicate?" style="rhombus;whiteSpace=wrap;html=1;fillColor=#ffe6cc;strokeColor=#d79b00;rounded=1;" vertex="1" parent="WIyWlLk6GJQsqaUBKTNV-1">
          <mxGeometry x="140" y="1290" width="80" height="80" as="geometry" />
        </mxCell>
        <mxCell id="dQFGTe_rli6qkeEuCF2u-13" value="End" style="ellipse;whiteSpace=wrap;html=1;fillColor=#ffe6cc;strokeColor=#d79b00;rounded=1;" vertex="1" parent="WIyWlLk6GJQsqaUBKTNV-1">
          <mxGeometry x="261" y="1300" width="89" height="60" as="geometry" />
        </mxCell>
        <mxCell id="dQFGTe_rli6qkeEuCF2u-16" value="" style="whiteSpace=wrap;html=1;fillColor=#ffe6cc;strokeColor=#d79b00;rounded=1;" vertex="1" parent="WIyWlLk6GJQsqaUBKTNV-1">
          <mxGeometry x="120" y="1390" width="120" height="60" as="geometry" />
        </mxCell>
        <mxCell id="dQFGTe_rli6qkeEuCF2u-20" value="channel_03231730, -&amp;gt; value" style="rounded=0;whiteSpace=wrap;html=1;" vertex="1" parent="WIyWlLk6GJQsqaUBKTNV-1">
          <mxGeometry x="90" y="1570" width="270" height="60" as="geometry" />
        </mxCell>
        <mxCell id="dQFGTe_rli6qkeEuCF2u-21" value="store_03231730, -&amp;gt; value" style="rounded=0;whiteSpace=wrap;html=1;" vertex="1" parent="WIyWlLk6GJQsqaUBKTNV-1">
          <mxGeometry x="90" y="1670" width="270" height="60" as="geometry" />
        </mxCell>
      </root>
    </mxGraphModel>
  </diagram>
</mxfile>
